PathFileType	4	(X/Y/Z)	C:/Users/beibeiliu/ov580/test_trc/User2\sequence.17_training_dense_right.trc
DataRate	CameraRate	NumFrames	NumMarkers	Units	OrigDataRate	OrigDataStartFrame	OrigNumFrames
120	120	24	19	mm	120	220	438
Frame#	Time	ThumbCMC			ThumbMCP			ThumbIP			ThumbTip			IndexMCP			IndexPIP			IndexTip			MiddleMCP			MiddlePIP			MiddleTip			RingMCP			RingPIP			RingTip			PinkyMCP			PinkyPIP			PinkyTip			BackHand1			BackHand2			BackHand3	
		X0	Y0	Z0	X1	Y1	Z1	X2	Y2	Z2	X3	Y3	Z3	X4	Y4	Z4	X5	Y5	Z5	X6	Y6	Z6	X7	Y7	Z7	X8	Y8	Z8	X9	Y9	Z9	X10	Y10	Z10	X11	Y11	Z11	X12	Y12	Z12	X13	Y13	Z13	X14	Y14	Z14	X15	Y15	Z15	X16	Y16	Z16	X17	Y17	Z17	X18	Y18	Z18	
219	1.825	38.2913	15.1438	63.433	5.2621	20.0629	46.0339	-18.6117	19.0955	17.9765	-25.2226	5.53757	-5.96381	41.143	26.452	-21.4958	17.3904	13.4623	-42.7513	-2.60692	-5.20115	-23.0667	51.6728	13.7161	-38.4403	24.3821	-2.21203	-54.9037	3.27348	-18.8962	-24.6162	57.7897	-9.76772	-40.0428	30.6393	-19.2081	-50.2305	12.8358	-30.2281	-19.3105	63.6689	-26.0735	-27.8831	37.66	-33.716	-41.891	16.5908	-44.5518	-18.6728	87.6188	-11.5644	17.0529	98.9218	-13.7296	46.8005	75.5217	15.4033	44.2549	
220	1.83333	36.5851	15.3893	60.6842	7.85963	14.5704	38.164	-17.5536	12.9107	13.5852	-19.4872	-1.43788	-14.4044	42.1691	25.5229	-27.589	19.5974	9.25991	-47.2662	-0.614868	-9.47182	-25.5628	57.1387	7.16164	-41.6649	26.26	-8.4856	-57.1114	10.9518	-27.2997	-27.0557	64.3442	-12.4366	-37.2599	37.8379	-27.2487	-53.3274	18.9768	-36.1184	-23.1138	68.7711	-31.3915	-27.6314	40.8632	-44.2052	-44.1965	21.5413	-49.1435	-21.1201	91.1298	-14.9479	15.812	99.9283	-15.9937	49.6565	75.1255	13.9974	36.993	
221	1.84167	37.1998	11.2448	53.0756	7.43322	10.0666	34.6949	-12.5533	4.46569	8.25287	-14.9482	-11.1113	-20.3837	48.8545	13.9663	-33.701	30.3176	-1.34034	-53.083	5.11103	-18.467	-32.3534	62.5769	-2.67842	-42.8144	31.5656	-18.6207	-60.2853	15.453	-34.9943	-29.493	70.1476	-23.0653	-39.6061	43.2025	-38.4993	-55.101	23.9154	-44.0653	-26.8483	78.4456	-43.5932	-29.1241	50.4602	-50.7416	-44.6515	29.903	-62.8759	-23.1122	95.4603	-17.3059	16.8407	101.683	-16.9643	48.8055	79.513	10.7489	36.2742	
222	1.85	37.9452	6.03357	46.8999	11.5854	1.68135	30.6377	-13.0941	-4.65763	0.309887	-15.7216	-22.7022	-21.0762	49.6182	2.89987	-38.5073	31.8134	-17.5263	-56.0442	10.2948	-31.754	-35.5415	64.3537	-12.2681	-45.2887	35.9018	-33.4286	-62.2738	18.3771	-45.9743	-31.4795	71.73	-32.7673	-45.1273	48.9161	-50.2838	-55.5952	29.104	-57.4742	-23.6523	81.1382	-52.0329	-32.4245	52.612	-64.2416	-43.4437	33.7646	-68.9206	-22.0354	98.9727	-23.8044	13.4104	104.128	-19.7969	42.9685	77.4847	7.6473	29.6221	
223	1.85833	40.3202	-0.513956	45.7845	9.73429	-5.2318	26.0708	-10.1836	-16.5675	5.97186	-14.6907	-36.8621	-22.2118	46.5487	-6.65193	-38.5332	26.8367	-26.4525	-56.6124	10.0936	-45.7628	-28.7337	60.2202	-23.6669	-49.2539	35.1258	-49.749	-58.0003	20.6782	-58.3784	-25.91	71.9017	-44.7939	-46.1919	46.2356	-61.5843	-51.7915	30.6818	-68.3698	-18.49	83.0145	-58.4868	-24.852	53.4738	-74.4167	-39.2218	37.9839	-81.3766	-11.1491	97.8573	-24.5867	12.0985	107.015	-19.221	41.0233	79.6375	4.59385	29.4865	
224	1.86667	37.9642	-0.818002	48.5734	10.3054	-12.2903	29.9304	-12.1299	-25.5664	9.76462	-19.0392	-45.4369	-11.5132	40.7176	-16.6944	-36.9012	21.6638	-38.7996	-49.2976	4.91204	-54.8455	-20.1754	54.0966	-31.1443	-45.6592	30.2646	-61.7821	-50.6558	17.0841	-66.9012	-15.1291	69.365	-51.0519	-38.2684	42.4782	-72.842	-45.363	28.9991	-73.4536	-10.761	79.3704	-64.5523	-25.4452	51.2356	-81.1411	-33.3615	37.1004	-86.8555	-6.60613	96.0354	-30.0724	9.14624	105.565	-22.6489	40.6592	78.76	0.68874	28.1105	
225	1.875	34.0316	-3.46749	52.1498	4.73831	-15.1969	40.6972	-18.0502	-30.7356	17.7049	-23.2587	-51.5047	-1.86366	33.6672	-21.0729	-31.7303	9.56403	-43.8796	-42.1016	2.50508	-61.3696	-12.4732	44.4878	-36.804	-41.1763	19.2663	-62.8973	-43.0959	12.736	-71.7404	-6.99868	59.001	-55.5297	-38.6887	35.0183	-72.9994	-38.7465	27.7735	-81.4796	-3.87201	70.9153	-64.4671	-24.1511	48.6686	-88.9337	-27.3426	33.9357	-89.6412	5.02925	87.5245	-28.2447	10.4869	104.443	-22.366	40.2046	72.8249	1.80291	31.1485	
226	1.88333	33.2265	-5.15938	60.9723	-2.33946	-15.4243	45.2662	-24.2661	-30.5491	27.9505	-29.8627	-51.3886	3.92958	22.676	-16.0276	-23.349	5.53287	-43.9466	-35.5699	-2.59581	-61.3606	-7.21278	37.0165	-36.8666	-37.7942	11.1766	-61.8463	-37.0203	9.76616	-70.9229	0.908544	48.7071	-51.7418	-35.2227	29.3921	-72.5559	-34.6998	21.7604	-77.4508	0.0617057	67.1475	-61.9711	-19.1065	40.8111	-82.5408	-24.2754	28.6511	-89.592	4.38206	85.9896	-26.004	10.6577	97.8899	-17.0381	44.347	64.9194	1.72104	34.6966	
227	1.89167	29.2443	-3.27389	65.9087	-6.97541	-12.218	54.6466	-27.9777	-28.0884	31.6346	-32.4145	-45.1107	13.2096	16.0126	-12.7609	-21.9779	-4.44395	-38.236	-29.4967	-8.9576	-54.5545	-0.859151	29.2148	-27.46	-34.1585	4.46658	-53.5503	-34.7413	4.23683	-65.6867	2.38747	40.7205	-42.9316	-32.7815	19.4631	-64.2704	-32.1055	18.4469	-73.4779	5.64333	58.1688	-54.1304	-20.6266	32.226	-76.2474	-22.9761	25.8894	-85.528	6.15291	78.7587	-19.6643	14.2736	94.0741	-12.2665	46.3673	63.2644	5.04132	40.2181	
228	1.9	20.411	3.44938	68.5039	-10.2288	-5.09247	60.0663	-31.3303	-19.6174	34.6695	-37.1435	-36.5185	12.3048	11.476	-1.56353	-15.1062	-8.5036	-22.8402	-28.9215	-17.883	-44.7142	2.87038	25.8086	-14.9321	-28.4091	0.398904	-40.8132	-34.7183	-4.04654	-55.0099	3.14368	36.3825	-29.0209	-27.8625	14.7867	-55.448	-31.5888	12.0472	-63.3686	5.05839	55.7572	-45.977	-20.3219	29.3002	-63.3927	-27.342	16.4018	-74.1635	3.24197	74.729	-10.9349	19.1216	89.2736	-6.95733	47.5344	54.4357	13.6623	42.2868	
229	1.90833	21.194	7.99356	73.4459	-9.35565	0.951338	62.8083	-34.5194	-8.92838	37.4323	-39.9632	-24.647	14.8745	9.8476	11.6003	-13.2265	-10.3767	-9.58498	-27.9824	-17.2676	-35.7059	1.92866	20.9585	1.09282	-24.8692	-3.15914	-29.3676	-34.2036	-5.50672	-42.8368	2.4083	32.0354	-16.5962	-30.7848	10.972	-40.7856	-32.8298	9.17519	-53.3409	-1.85326	50.239	-34.0351	-23.572	22.1046	-50.2919	-25.3486	15.0912	-64.2998	2.21405	72.5641	-5.69431	16.8338	88.8087	-2.52392	51.5213	54.8732	19.6661	47.2696	
230	1.91667	23.0864	9.97864	70.4291	-9.22253	4.93117	57.8645	-32.6583	-3.21047	35.2941	-33.8501	-15.8787	7.45435	10.8656	23.6118	-10.9071	-6.37186	3.26498	-27.9609	-18.0099	-21.9498	-4.63723	26.8654	11.3024	-25.3827	-1.22777	-14.0356	-36.5855	-4.94458	-32.2177	-4.98552	35.8945	-3.53171	-27.4769	14.5115	-28.3655	-34.8508	12.0774	-40.2755	-0.697103	51.1856	-21.1791	-23.0796	25.8661	-40.897	-29.4112	18.5886	-53.393	-5.34406	76.4182	1.37748	22.6274	91.8534	0.480985	52.9113	54.806	23.2567	52.2782	
231	1.925	20.2243	12.803	73.7164	-10.8487	8.52976	55.673	-33.1604	2.61089	31.5164	-29.8023	-8.22831	2.10219	13.6147	34.1402	-9.42435	-6.00298	11.3959	-28.9266	-11.1177	-16.0665	-7.15919	32.3929	21.49	-25.4556	7.10714	-3.01445	-39.3835	4.05824	-25.1721	-9.87432	42.1023	7.66594	-27.7315	22.8539	-12.7538	-39.5151	19.766	-32.8216	-9.75835	61.6345	-10.648	-23.2794	33.5558	-30.4385	-32.9911	22.7655	-43.5432	-8.06947	77.5199	10.9132	25.3168	91.4356	7.84042	53.3875	57.7557	27.4217	52.05	
232	1.93333	24.3998	10.905	72.1782	-5.09977	6.14948	51.9133	-26.7808	4.05684	20.6133	-25.0114	-4.32642	-7.66324	20.3308	40.1518	-12.183	4.51878	19.4384	-31.2062	-3.1349	-8.70092	-13.7214	37.871	32.0186	-27.2501	18.2761	9.70903	-43.6201	12.8416	-18.6276	-10.0905	52.6469	16.7897	-31.109	30.1937	-4.69677	-40.4502	25.9681	-23.549	-11.316	66.6828	1.96863	-22.9343	41.6759	-18.4378	-35.4698	33.8542	-33.9875	-14.046	81.8631	17.8613	24.5456	95.2608	10.0686	59.9651	55.8636	31.9896	58.9162	
233	1.94167	25.3605	10.3765	69.1571	-3.93202	6.14553	46.734	-21.1012	3.96479	13.5675	-19.661	-2.75772	-13.2387	25.475	44.8127	-8.55712	11.217	24.5265	-34.6817	5.43656	-2.87387	-19.6014	42.3967	41.8738	-22.869	25.5829	17.8265	-44.9585	18.2271	-12.4651	-16.3338	59.9715	25.3338	-28.4808	44.5109	3.97918	-45.1771	36.542	-20.3857	-16.3279	76.943	7.6422	-20.6329	53.0838	-13.1004	-38.0733	45.6788	-31.6641	-17.2683	87.3518	22.4319	31.4026	94.7473	17.0664	59.7796	61.0536	32.3898	57.94	
234	1.95	27.711	8.0782	66.1912	2.16077	4.17253	39.4127	-15.5154	0.903492	7.56885	-7.51249	-3.63949	-18.545	33.3711	45.4274	-15.1634	21.3343	26.2124	-37.9658	9.70518	-3.51433	-21.7139	51.9537	41.9869	-23.5878	35.0083	21.1174	-48.354	27.3301	-11.2956	-21.277	66.6865	28.6986	-28.2648	52.9371	7.54773	-48.0989	41.7049	-17.8448	-18.0796	85.5404	10.2904	-23.5182	62.8436	-5.76337	-39.3018	52.4411	-26.3754	-18.8691	90.3333	26.0196	30.2955	97.2967	17.687	60.9161	62.6753	32.5004	55.9004	
235	1.95833	29.1395	8.09722	58.8185	5.04892	-0.0234018	36.4043	-10.9985	-3.50448	1.72764	-4.16524	-9.07761	-25.4531	35.6821	43.2363	-16.414	24.721	24.1979	-42.4148	22.3451	-5.80967	-29.7177	57.0073	39.9304	-27.4353	42.4321	14.1903	-51.8206	35.5946	-14.0276	-28.7159	75.4572	24.9593	-28.5791	62.8868	4.80151	-50.7189	50.8621	-20.0449	-25.7603	89.5113	10.05	-21.0781	71.9064	-13.4029	-42.1532	62.6172	-30.328	-21.0925	91.2387	25.2775	31.4015	99.4385	16.9337	60.5477	64.6715	33.2311	53.416	
236	1.96667	31.7204	6.12856	55.7636	8.63902	-4.39946	33.7065	-2.57987	-9.64935	-2.57095	7.1303	-15.8467	-29.6846	44.0321	36.779	-21.6535	31.0297	18.7536	-46.7839	22.3782	-13.7511	-32.17	63.2727	32.942	-32.02	49.2687	10.039	-56.0967	42.4289	-22.9123	-28.7167	81.4066	18.2836	-35.5443	69.6294	-2.77526	-54.1955	55.5354	-25.4444	-29.8695	94.1114	5.17877	-26.9993	76.9459	-16.171	-42.6673	64.7739	-35.7741	-18.5188	99.2929	19.1323	25.3428	102.522	12.9077	60.6837	67.8802	29.7573	47.9724	
237	1.975	33.4243	3.96038	52.697	8.73887	-8.28078	29.3608	-0.53505	-17.535	-3.55303	9.99927	-27.2253	-29.0591	48.2881	27.5144	-25.9662	40.4338	7.3451	-50.3985	30.2902	-27.1565	-33.364	67.2948	22.4945	-39.5679	54.3419	-6.05584	-58.842	45.1406	-33.2532	-29.8248	84.4687	8.011	-40.283	71.4427	-13.373	-54.9129	60.3912	-37.4975	-30.4085	99.9138	-5.80634	-27.7501	83.455	-30.7142	-45.1411	69.9698	-44.295	-19.84	99.1178	17.3634	22.6187	103.97	13.3417	56.0254	71.0459	27.8072	46.1432	
238	1.98333	37.5732	0.378845	54.5676	13.7862	-13.2998	29.6965	-2.43069	-26.3106	-1.11464	7.26864	-39.0366	-26.1939	50.2195	14.6613	-30.798	36.4694	-5.64543	-52.0438	29.7207	-36.2481	-33.1719	68.8006	9.20218	-41.1792	56.1138	-23.8788	-57.5564	46.3651	-44.625	-29.5291	85.4538	-4.32878	-40.3183	73.6117	-29.5932	-54.8062	60.2562	-49.6155	-22.5537	103.133	-19.2126	-29.1949	83.9106	-39.9106	-43.3224	67.7053	-56.4107	-19.1353	101.384	10.3801	21.4242	109.302	6.57825	53.8316	72.3494	24.0508	40.2872	
239	1.99167	35.3167	-1.10969	50.7473	14.0807	-16.1695	33.2042	-2.67541	-33.12	5.1673	6.98772	-48.1412	-22.8394	44.1182	4.98565	-31.4628	34.7693	-20.7067	-49.8513	25.792	-48.0425	-26.8196	66.308	-4.9908	-42.1197	54.0716	-36.3415	-56.1871	40.1173	-54.841	-21.7847	83.1673	-20.1315	-42.9532	67.8385	-46.8226	-49.7403	56.9932	-60.8071	-16.4349	101.328	-31.2594	-26.0754	80.4121	-52.6298	-39.2736	66.5272	-69.7574	-12.0156	99.1382	1.14597	14.9885	106.7	4.89399	48.2501	74.2573	18.0228	38.9129	
240	2	39.6719	-1.23834	52.3942	7.62923	-14.9617	35.9914	-6.2417	-33.3895	12.2838	-4.71023	-52.4591	-11.3512	42.6397	-7.81771	-33.3446	28.736	-36.511	-43.6441	19.0713	-53.9625	-18.3486	60.6498	-18.7345	-42.5894	43.1977	-47.4539	-49.4289	31.4397	-61.2784	-10.6317	75.5072	-32.1823	-38.8525	56.8392	-58.1608	-42.7586	46.4081	-66.5327	-12.3554	93.7607	-44.4261	-28.6523	70.7876	-65.502	-33.7718	58.4082	-74.6138	-5.7491	101.551	-6.67855	15.8799	112.062	0.382948	48.4344	75.2877	15.8012	33.4794	
241	2.00833	39.0794	3.92788	52.6615	5.56362	-9.66855	39.5046	-11.792	-28.4708	17.4067	-9.53162	-49.9263	-3.38757	35.3479	-12.6501	-28.9941	18.7362	-38.4817	-38.0323	7.40444	-54.0964	-8.33715	50.7177	-26.8231	-38.3612	28.4668	-54.7728	-40.9228	25.0124	-66.5521	-3.3102	65.4	-42.3676	-35.608	43.8596	-67.4548	-34.5531	37.4916	-72.0803	-1.51864	82.6036	-54.1898	-21.7718	57.0263	-75.4703	-24.5506	45.1862	-79.3842	8.28936	97.5285	-12.3434	13.8049	107.566	-4.83663	44.7006	75.1673	12.4788	29.5864	
242	2.01667	39.8274	10.3414	51.3853	8.28822	0.368888	42.573	-19.8069	-15.889	25.3727	-21.3243	-38.5208	9.74855	29.4972	-10.6779	-25.9819	7.77148	-37.3429	-32.5822	-2.30288	-50.6312	-0.871151	42.7155	-33.3519	-33.6874	12.7374	-56.9058	-30.9587	9.49568	-63.0713	5.51459	54.8368	-49.9464	-28.505	27.5796	-69.2337	-26.6204	22.9232	-69.1022	11.7338	69.976	-62.8543	-14.9017	38.2172	-81.2004	-13.8295	27.3215	-76.1742	18.0409	89.0257	-21.4132	12.1846	107.749	-12.226	42.6442	76.9072	10.501	31.3592	
